<svg width="862" height="104" viewBox="0 0 862 104" fill="none" xmlns="http://www.w3.org/2000/svg">
<g clip-path="url(#clip0_1_2316)">
<path d="M1.51488 40.0094C1.51488 49.8443 6.24739 55.757 14.6673 61.7989L0 83.6178H12.1073L28.4714 59.2154L22.7936 55.3402C15.8886 50.7075 12.577 47.0142 12.577 39.3576C12.577 32.4526 17.4035 27.726 26.6689 27.726H31.5893V83.6296H42.8451V19.1064H26.5749C10.1168 19.1064 1.509 27.5263 1.509 40.0094H1.51488Z" fill="#FFBC0D"/>
<path d="M77.9405 55.3343H63.1852V36.8916H52.1172V83.6179H63.1852V64.0361H77.9405V83.6179H89.1025V36.8916H77.9405V55.3343Z" fill="#FFBC0D"/>
<path d="M224.643 36.8916H213.487L197.974 58.458V36.8916H186.906V83.6179H197.974V60.6305L214.239 83.6179H226.821L209.136 58.458L224.643 36.8916Z" fill="#FFBC0D"/>
<path d="M248.762 44.8355C253.019 44.8355 257.182 46.3504 259.448 47.6715V38.4002C257.082 37.0733 253.019 36.1279 247.623 36.1279C233.437 36.1279 226.15 46.1566 226.15 60.2485C226.15 75.5734 233.243 84.0872 248.093 84.0872C253.107 84.0872 256.7 83.2359 259.442 81.2513V72.1737C256.606 74.1583 253.295 75.3914 248.662 75.3914C240.812 75.3914 237.5 69.4317 237.5 59.9725C237.5 49.9438 241.569 44.8414 248.756 44.8414L248.762 44.8355Z" fill="#FFBC0D"/>
<path d="M133.844 36.8916H101.685V40.8667C101.685 52.3104 100.927 66.9719 97.0522 74.8222H93.5527V93.8345H103.863V83.6179H128.647V93.8345H138.77V74.8222H133.85V36.8916H133.844ZM122.776 74.8222H107.263C110.287 67.7293 111.138 55.0525 111.138 46.9203V45.5933H122.77V74.8222H122.776Z" fill="#FFBC0D"/>
<path d="M161.27 36.1338C147.935 36.1338 141.5 46.3504 141.5 60.3483C141.5 76.3308 149.444 84.0872 163.536 84.0872C170.629 84.0872 175.831 82.5723 179.049 80.3999V71.4163C175.643 73.5947 169.872 75.3914 164.481 75.3914C156.367 75.3914 153.273 71.6923 152.891 64.1355H179.425V58.3637C179.425 42.1874 172.332 36.1338 161.264 36.1338H161.27ZM161.082 44.8355C166.66 44.8355 168.269 49.2803 168.269 55.0521V55.9974H152.879C153.143 48.6697 155.791 44.8355 161.082 44.8355Z" fill="#FFBC0D"/>
<path d="M380.997 40.197L380.715 38.1185L363.688 34.1434L372.483 21.0908L371.444 19.6758L357.728 26.387L359.243 8.13218L357.728 7.38061L349.214 22.0362L339.191 0H337.301L339.755 21.5664L314.689 1.60882L312.516 2.17837L331.811 26.387L293.504 13.6221L291.707 15.6067L325.945 34.9948L278.843 38.9699L278.367 41.8059L327.366 47.1021L286.411 80.5878L288.302 83.142L336.825 56.6552L327.272 103.1H330.202L348.932 59.4031L360.282 93.5465L362.267 92.0316L358.01 57.7943L375.319 77.3702L376.364 75.3856L363.5 51.1711L381.754 57.6064L381.942 55.6159L366.717 43.4147L380.997 40.197Z" fill="#FFBC0D"/>
<path d="M608.896 59.5557C617.557 57.8118 621.72 53.5549 621.72 49.0924C621.72 39.7272 608.667 35.1885 591.452 35.1885C579.626 35.1885 570.736 37.4608 564.589 40.5786V50.7013C569.979 47.8653 578.869 45.1232 588.14 45.1232C594.763 45.1232 598.638 46.5442 598.638 50.1376C598.638 53.731 595.327 55.152 587.476 55.152H576.696V65.1807H587.382C597.505 65.1807 600.059 66.6016 600.059 70.195C600.059 73.2248 596.184 75.4912 587.101 75.4912C574.712 75.4912 567.519 71.7099 563.168 69.6255V80.03C566.949 82.3023 575.751 85.0443 589.655 85.0443C611.409 85.0443 623.422 79.3665 623.422 70.1011C623.422 64.1707 618.197 60.8885 608.896 59.5674V59.5557Z" fill="#FFBC0D"/>
<path d="M550.021 36.8916L534.097 66.4023L516.823 36.8916H491.094L521.72 87.6575L512.472 102.342H525.619L538.577 80.9698L563.168 36.8916H550.021Z" fill="#FFBC0D"/>
<path d="M443.176 55.7629L427.059 19.1064H399.914V83.6178H410.225V36.1693L431.409 83.6178H443.141L464.044 36.1576V83.6178H487.125V19.1064H458.842L443.176 55.7629Z" fill="#FFBC0D"/>
<path d="M790.37 36.8916H773.061L748.089 55.4283V36.8916H725.102V83.6179H748.089V64.13L764.453 83.6179H794.058L767.307 53.6844L790.37 36.8916Z" fill="#FFBC0D"/>
<path d="M662.392 49.6565H652.933V36.8857H629.852V83.612H662.292C679.602 83.612 690.288 77.5584 690.288 66.3025C690.288 56.1799 680.829 49.6565 662.386 49.6565H662.392ZM659.174 73.871H652.933V59.3975H659.174C664.189 59.3975 667.119 61.7638 667.119 66.5843C667.119 72.1624 664.565 73.8651 659.174 73.8651V73.871Z" fill="#FFBC0D"/>
<path d="M839.838 36.986L839.327 42.8576C834.641 38.5184 827.666 36.2285 818.747 36.2285C803.046 36.2285 790.182 44.7423 790.182 60.537C790.182 76.3316 802.383 84.9394 818.653 84.9394C827.402 84.9394 834.553 82.6084 839.374 78.0931L839.838 83.6124H861.974V36.986H839.838ZM826.404 74.5349C818.553 74.5349 813.727 70.5833 813.727 60.443C813.727 49.6804 818.741 46.633 826.404 46.633C833.403 46.633 838.986 49.5806 838.986 60.443C838.986 71.3055 834.26 74.5349 826.404 74.5349Z" fill="#FFBC0D"/>
<path d="M715.931 36.8916H692.943V83.6179H715.931V36.8916Z" fill="#FFBC0D"/>
</g>
<defs>
<clipPath id="clip0_1_2316">
<rect width="861.97" height="103.1" fill="white"/>
</clipPath>
</defs>
</svg>
